# Blender v2.91.0 OBJ File: ''
# www.blender.org
mtllib blender_obj.mtl
o Cube
v 1.000000 2.000000 -1.000000
v 1.000000 0.000000 -1.000000
v 1.000000 2.000000 1.000000
v 1.000000 0.000000 1.000000
v -1.000000 2.000000 -1.000000
v -1.000000 0.000000 -1.000000
v -1.000000 2.000000 1.000000
v -1.000000 0.000000 1.000000
v 1.446851 3.477676 1.446851
v -1.446851 3.477676 1.446851
v 1.446851 3.477676 -1.446851
v -1.446851 3.477676 -1.446851
vt 0.718750 0.712891
vt 0.718750 0.712891
vt 0.718750 0.712891
vt 0.531250 0.894531
vt 0.531250 0.894531
vt 0.531250 0.894531
vt 0.531250 0.894531
vt 0.531250 0.894531
vt 0.312500 0.404297
vt 0.312500 0.404297
vt 0.312500 0.404297
vt 0.531250 0.894531
vt 0.531250 0.894531
vt 0.531250 0.894531
vt 0.812500 0.457031
vt 0.812500 0.457031
vt 0.812500 0.457031
vt 0.718750 0.712891
vt 0.718750 0.712891
vt 0.718750 0.712891
vt 0.718750 0.712891
vt 0.718750 0.712891
vt 0.312500 0.404297
vt 0.812500 0.457031
vn -0.9572 -0.2895 0.0000
vn 0.0000 0.0000 1.0000
vn -1.0000 0.0000 0.0000
vn 0.0000 -1.0000 0.0000
vn 1.0000 0.0000 0.0000
vn 0.0000 0.0000 -1.0000
vn 0.0000 1.0000 0.0000
vn 0.9572 -0.2895 0.0000
vn 0.0000 -0.2895 -0.9572
vn 0.0000 -0.2895 0.9572
usemtl Material
s off
f 7/1/1 12/2/1 5/3/1
f 3/4/2 8/5/2 4/6/2
f 7/7/3 6/8/3 8/5/3
f 2/9/4 8/10/4 6/11/4
f 1/12/5 4/6/5 2/13/5
f 5/14/6 2/13/6 6/8/6
f 12/15/7 9/16/7 11/17/7
f 1/18/8 9/19/8 3/20/8
f 5/3/9 11/21/9 1/18/9
f 3/20/10 10/22/10 7/1/10
f 7/1/1 10/22/1 12/2/1
f 3/4/2 7/7/2 8/5/2
f 7/7/3 5/14/3 6/8/3
f 2/9/4 4/23/4 8/10/4
f 1/12/5 3/4/5 4/6/5
f 5/14/6 1/12/6 2/13/6
f 12/15/7 10/24/7 9/16/7
f 1/18/8 11/21/8 9/19/8
f 5/3/9 12/2/9 11/21/9
f 3/20/10 9/19/10 10/22/10
