#
# generated by kHED
#
mtllib test.mtl
# vertices:
v -12.000000 8.000000 0.000000
v -12.000000 8.000000 -20.000000
v -12.000000 -7.000000 0.000000
v -12.000000 -7.000000 -20.000000
v 8.000000 8.000000 0.000000
v 8.000000 8.000000 -20.000000
v 8.000000 -7.000000 0.000000
v 8.000000 -7.000000 -20.000000
v 15.000000 8.000000 0.000000
v 15.000000 8.000000 -26.000000
v 15.000000 -7.000000 0.000000
v 15.000000 -7.000000 -26.000000
v 34.000000 8.000000 0.000000
v 34.000000 8.000000 -26.000000
v 34.000000 -7.000000 0.000000
v 34.000000 -7.000000 -26.000000

# texture coords:
vt 0.000000 0.000000 0.0
vt 0.000000 1.000000 0.0
vt 1.000000 1.000000 0.0
vt 0.000000 0.000000 0.0
vt 1.000000 1.000000 0.0
vt 1.000000 0.000000 0.0
vt 0.000000 0.000000 0.0
vt 1.000000 0.000000 0.0
vt 0.000000 1.000000 0.0
vt 0.000000 1.000000 0.0
vt 1.000000 0.000000 0.0
vt 1.000000 1.000000 0.0
vt 0.000000 0.000000 0.0
vt 0.000000 1.000000 0.0
vt 1.000000 1.000000 0.0
vt 0.000000 0.000000 0.0
vt 1.000000 1.000000 0.0
vt 1.000000 0.000000 0.0
vt 0.000000 0.000000 0.0
vt 1.000000 0.000000 0.0
vt 0.000000 1.000000 0.0
vt 0.000000 1.000000 0.0
vt 1.000000 0.000000 0.0
vt 1.000000 1.000000 0.0
vt 0.000000 0.000000 0.0
vt 1.000000 0.000000 0.0
vt 1.000000 1.000000 0.0
vt 0.000000 0.000000 0.0
vt 1.000000 1.000000 0.0
vt 0.000000 1.000000 0.0
vt 0.000000 0.000000 0.0
vt 0.000000 1.000000 0.0
vt 1.000000 0.000000 0.0
vt 1.000000 0.000000 0.0
vt 0.000000 1.000000 0.0
vt 1.000000 1.000000 0.0
vt 0.000000 0.000000 0.0
vt 0.000000 1.000000 0.0
vt 1.000000 1.000000 0.0
vt 0.000000 0.000000 0.0
vt 1.000000 1.000000 0.0
vt 1.000000 0.000000 0.0
vt 0.000000 0.000000 0.0
vt 1.000000 0.000000 0.0
vt 0.000000 1.000000 0.0
vt 0.000000 1.000000 0.0
vt 1.000000 0.000000 0.0
vt 1.000000 1.000000 0.0
vt 0.000000 0.000000 0.0
vt 0.000000 1.000000 0.0
vt 1.000000 1.000000 0.0
vt 0.000000 0.000000 0.0
vt 1.000000 1.000000 0.0
vt 1.000000 0.000000 0.0
vt 0.000000 0.000000 0.0
vt 1.000000 0.000000 0.0
vt 0.000000 1.000000 0.0
vt 0.000000 1.000000 0.0
vt 1.000000 0.000000 0.0
vt 1.000000 1.000000 0.0
vt 0.000000 0.000000 0.0
vt 1.000000 0.000000 0.0
vt 1.000000 1.000000 0.0
vt 0.000000 0.000000 0.0
vt 1.000000 1.000000 0.0
vt 0.000000 1.000000 0.0
vt 0.000000 0.000000 0.0
vt 0.000000 1.000000 0.0
vt 1.000000 0.000000 0.0
vt 1.000000 0.000000 0.0
vt 0.000000 1.000000 0.0
vt 1.000000 1.000000 0.0

# normals:
vn 0.000000 0.000000 1.000000
vn 0.000000 0.000000 1.000000
vn 0.000000 0.000000 1.000000
vn 0.000000 0.000000 1.000000
vn 0.000000 0.000000 1.000000
vn 0.000000 0.000000 1.000000
vn 0.000000 0.000000 -1.000000
vn 0.000000 0.000000 -1.000000
vn 0.000000 0.000000 -1.000000
vn 0.000000 0.000000 -1.000000
vn 0.000000 0.000000 -1.000000
vn 0.000000 0.000000 -1.000000
vn -1.000000 0.000000 0.000000
vn -1.000000 0.000000 0.000000
vn -1.000000 0.000000 0.000000
vn -1.000000 0.000000 0.000000
vn -1.000000 0.000000 0.000000
vn -1.000000 0.000000 0.000000
vn 1.000000 0.000000 0.000000
vn 1.000000 0.000000 0.000000
vn 1.000000 0.000000 0.000000
vn 1.000000 0.000000 0.000000
vn 1.000000 0.000000 0.000000
vn 1.000000 0.000000 0.000000
vn 0.000000 1.000000 0.000000
vn 0.000000 1.000000 0.000000
vn 0.000000 1.000000 0.000000
vn 0.000000 1.000000 0.000000
vn 0.000000 1.000000 0.000000
vn 0.000000 1.000000 0.000000
vn 0.000000 -1.000000 0.000000
vn 0.000000 -1.000000 0.000000
vn 0.000000 -1.000000 0.000000
vn 0.000000 -1.000000 0.000000
vn 0.000000 -1.000000 0.000000
vn 0.000000 -1.000000 0.000000
vn 0.000000 0.000000 1.000000
vn 0.000000 0.000000 1.000000
vn 0.000000 0.000000 1.000000
vn 0.000000 0.000000 1.000000
vn 0.000000 0.000000 1.000000
vn 0.000000 0.000000 1.000000
vn 0.000000 0.000000 -1.000000
vn 0.000000 0.000000 -1.000000
vn 0.000000 0.000000 -1.000000
vn 0.000000 0.000000 -1.000000
vn 0.000000 0.000000 -1.000000
vn 0.000000 0.000000 -1.000000
vn -1.000000 0.000000 0.000000
vn -1.000000 0.000000 0.000000
vn -1.000000 0.000000 0.000000
vn -1.000000 0.000000 0.000000
vn -1.000000 0.000000 0.000000
vn -1.000000 0.000000 0.000000
vn 1.000000 0.000000 0.000000
vn 1.000000 0.000000 0.000000
vn 1.000000 0.000000 0.000000
vn 1.000000 0.000000 0.000000
vn 1.000000 0.000000 0.000000
vn 1.000000 0.000000 0.000000
vn 0.000000 1.000000 0.000000
vn 0.000000 1.000000 0.000000
vn 0.000000 1.000000 0.000000
vn 0.000000 1.000000 0.000000
vn 0.000000 1.000000 0.000000
vn 0.000000 1.000000 0.000000
vn 0.000000 -1.000000 0.000000
vn 0.000000 -1.000000 0.000000
vn 0.000000 -1.000000 0.000000
vn 0.000000 -1.000000 0.000000
vn 0.000000 -1.000000 0.000000
vn 0.000000 -1.000000 0.000000

# triangles:
g Box 1
usemtl Material1
s 0
f 1/1/1 3/2/2 7/3/3
f 1/4/4 7/5/5 5/6/6
f 2/7/7 6/8/8 4/9/9
f 4/10/10 6/11/11 8/12/12
s 1
f 1/13/13 2/14/14 4/15/15
f 1/16/16 4/17/17 3/18/18
f 5/19/19 7/20/20 6/21/21
f 6/22/22 7/23/23 8/24/24
s 2
f 1/25/25 5/26/26 6/27/27
f 1/28/28 6/29/29 2/30/30
f 3/31/31 4/32/32 7/33/33
f 7/34/34 4/35/35 8/36/36
g Box 2
usemtl Material2
s 3
f 9/37/37 11/38/38 15/39/39
f 9/40/40 15/41/41 13/42/42
f 10/43/43 14/44/44 12/45/45
f 12/46/46 14/47/47 16/48/48
s 4
f 9/49/49 10/50/50 12/51/51
f 9/52/52 12/53/53 11/54/54
f 13/55/55 15/56/56 14/57/57
f 14/58/58 15/59/59 16/60/60
s 5
f 9/61/61 13/62/62 14/63/63
f 9/64/64 14/65/65 10/66/66
f 11/67/67 12/68/68 15/69/69
f 15/70/70 12/71/71 16/72/72

g